<svg xmlns="http://www.w3.org/2000/svg" viewBox="0 0 320 220" width="320" height="220" role="img" aria-labelledby="title desc">
  <title id="title">DFlip — Original Display</title>
  <desc id="desc">Inline/displayed flipbook embedded on the page (two pages, toolbar)</desc>
  <rect width="100%" height="100%" fill="#f7f7f7"/>

  <!-- Inline flipbook frame -->
  <g transform="translate(40,30)">
    <rect x="0" y="0" width="240" height="140" rx="8" fill="#ececec" stroke="#bdbdbd" />
    <!-- left page -->
    <rect x="8" y="8" width="112" height="124" rx="4" fill="#ffffff" stroke="#9a9a9a" />
    <rect x="18" y="18" width="92" height="56" fill="#e5e5e5" stroke="#d0d0d0" />
    <rect x="18" y="80" width="92" height="8" fill="#e0e0e0" />
    <rect x="18" y="94" width="72" height="6" fill="#e0e0e0" />
    <rect x="18" y="106" width="88" height="6" fill="#e0e0e0" />
    <!-- right page -->
    <rect x="120" y="8" width="112" height="124" rx="4" fill="#ffffff" stroke="#9a9a9a" />
    <rect x="130" y="18" width="92" height="30" fill="#e5e5e5" stroke="#d0d0d0" />
    <rect x="130" y="54" width="92" height="8" fill="#e0e0e0" />
    <rect x="130" y="68" width="72" height="6" fill="#e0e0e0" />
    <rect x="130" y="80" width="88" height="6" fill="#e0e0e0" />
    <!-- spine -->
    <line x1="120" y1="8" x2="120" y2="132" stroke="#9a9a9a" stroke-width="1.6"/>
    <!-- page-turn arrows -->
    <g fill="#bdbdbd" opacity="0.9">
      <polygon points="2,64 12,54 12,74" />
      <polygon points="238,64 228,54 228,74" />
    </g>

    <!-- toolbar -->
    <rect x="56" y="120" width="128" height="12" rx="6" fill="#f2f2f2" stroke="#d0d0d0"/>
    <g fill="#b0b0b0">
      <circle cx="74" cy="126" r="3"/>
      <rect x="86" y="123" width="22" height="6" rx="2"/>
      <rect x="114" y="123" width="22" height="6" rx="2"/>
      <circle cx="198" cy="126" r="3"/>
    </g>
  </g>
</svg>
